<svg width="24" height="24" viewBox="0 0 24 24" fill="none" xmlns="http://www.w3.org/2000/svg">
<path fill-rule="evenodd" clip-rule="evenodd" d="M14.5001 7.49995L12.0001 9.99995L9.50008 7.49995C9.22393 7.22381 8.77622 7.22381 8.50008 7.49995C8.22393 7.7761 8.22393 8.22381 8.50008 8.49995L11.293 11.2928C11.6835 11.6834 12.3167 11.6834 12.7072 11.2928L15.5001 8.49995C15.7762 8.22381 15.7762 7.7761 15.5001 7.49995C15.2239 7.22381 14.7762 7.22381 14.5001 7.49995ZM14.5001 13.5L12.0001 16L9.50008 13.5C9.22393 13.2238 8.77622 13.2238 8.50008 13.5C8.22393 13.7761 8.22393 14.2238 8.50008 14.5L11.293 17.2928C11.6835 17.6834 12.3167 17.6834 12.7072 17.2928L15.5001 14.5C15.7762 14.2238 15.7762 13.7761 15.5001 13.5C15.2239 13.2238 14.7762 13.2238 14.5001 13.5Z" fill="#41F6D7"/>
</svg>
