<svg xmlns="http://www.w3.org/2000/svg">
    <symbol id="call" viewBox="0 0 40 40">
        <rect width="40" height="40" rx="20"/>
        <path fill-rule="evenodd" clip-rule="evenodd"
              d="M12.7602 23.25L15.3002 22.96C15.9102 22.89 16.5102 23.1 16.9402 23.53L18.7802 25.37C21.6102 23.93 23.9302 21.62 25.3702 18.78L23.5202 16.93C23.0902 16.5 22.8802 15.9 22.9502 15.29L23.2402 12.77C23.3602 11.76 24.2102 11 25.2302 11H26.9602C28.0902 11 29.0302 11.94 28.9602 13.07C28.4302 21.61 21.6002 28.43 13.0702 28.96C11.9402 29.03 11.0002 28.09 11.0002 26.96V25.23C10.9902 24.22 11.7502 23.37 12.7602 23.25Z"
              fill="white"/>
    </symbol>
    <symbol id="chat" viewBox="0 0 40 40">
        <rect width="40" height="40" rx="20"/>
        <path fill-rule="evenodd" clip-rule="evenodd" d="M28 11H12C10.9 11 10.01 11.9 10.01 13L10 31L14 26H28C29.1 26 30 25.1 30 24V13C30 11.9 29.1 11 28 11ZM21 22H15C14.45 22 14 21.55 14 21C14 20.45 14.45 20 15 20H21C21.55 20 22 20.45 22 21C22 21.55 21.55 22 21 22ZM25 17H15C14.45 17 14 16.55 14 16C14 15.45 14.45 15 15 15H25C25.55 15 26 15.45 26 16C26 16.55 25.55 17 25 17Z" fill="white"/>
        <mask id="mask0" mask-type="alpha" maskUnits="userSpaceOnUse" x="10" y="11" width="20" height="20">
            <path fill-rule="evenodd" clip-rule="evenodd" d="M28 11H12C10.9 11 10.01 11.9 10.01 13L10 31L14 26H28C29.1 26 30 25.1 30 24V13C30 11.9 29.1 11 28 11ZM21 22H15C14.45 22 14 21.55 14 21C14 20.45 14.45 20 15 20H21C21.55 20 22 20.45 22 21C22 21.55 21.55 22 21 22ZM25 17H15C14.45 17 14 16.55 14 16C14 15.45 14.45 15 15 15H25C25.55 15 26 15.45 26 16C26 16.55 25.55 17 25 17Z" fill="white"/>
        </mask>
    </symbol>
    <symbol id="profile" viewBox="0 0 40 40">
        <rect width="40" height="40" rx="20"/>
        <path d="M20.5 19C22.9853 19 25 16.9853 25 14.5C25 12.0147 22.9853 10 20.5 10C18.0147 10 16 12.0147 16 14.5C16 16.9853 18.0147 19 20.5 19Z" fill="white"/>
        <path d="M10.0166 26.6118C9.88693 27.3412 10.5352 28 11.339 28H28.6604C29.4902 28 30.1125 27.3412 29.9829 26.6118C29.2309 22.4 25.0561 20 19.9997 20C14.9433 20 10.7686 22.4 10.0166 26.6118Z" fill="white"/>
    </symbol>
</svg>